<?xml version="1.0" encoding="iso-8859-1"?>
<!DOCTYPE svg PUBLIC "-//W3C//DTD SVG 1.1//EN" "http://www.w3.org/Graphics/SVG/1.1/DTD/svg11.dtd">
<svg 
 version="1.1" xmlns="http://www.w3.org/2000/svg" xmlns:xlink="http://www.w3.org/1999/xlink" x="0px" y="0px" width="512px"
	 height="512px" viewBox="0 0 512 512" style="enable-background:new 0 0 512 512;" xml:space="preserve"
><g id="afcae5a789ccd549f9c6e2a2f80e0540"><g></g><path style="display: inline; fill:#ffffff;" d="M256,52.944c111.963,0,203.056,91.087,203.056,203.056
		c0,111.968-91.093,203.056-203.056,203.056c-111.963,0-203.056-91.088-203.056-203.056C52.944,144.032,144.037,52.944,256,52.944
		 M256,2.181C115.819,2.181,2.181,115.819,2.181,256S115.819,509.819,256,509.819S509.819,396.181,509.819,256
		S396.181,2.181,256,2.181L256,2.181z M224.887,168.318c7.664-7.53,18.125-11.298,31.4-11.298c6.505,0,12.443,0.991,17.808,2.969
		c5.354,1.979,9.954,4.755,13.781,8.329s6.762,7.917,8.805,13.018c2.042,5.106,3.063,10.723,3.063,16.851
		c0,4.467-0.545,8.452-1.626,11.962s-2.717,6.826-4.878,9.955c-2.172,3.128-4.918,6.32-8.239,9.572
		c-3.312,3.252-7.148,6.861-11.481,10.817l-12.255,10.916c-4.472,4.085-8.269,8.165-11.392,12.25
		c-3.123,4.085-5.711,8.71-7.753,13.876c-2.042,5.17-3.54,11.01-4.491,17.52c-0.962,6.509-1.438,14.168-1.438,22.973h39.243
		c0.119-8.041,0.704-14.575,1.726-19.622c1.021-5.041,2.776-9.572,5.265-13.593s5.83-7.972,10.044-11.868s9.637-8.586,16.28-14.069
		c6.246-5.106,11.551-10.152,15.883-15.13c4.343-4.978,7.853-9.984,10.53-15.026c2.687-5.041,4.63-10.207,5.84-15.507
		c1.219-5.294,1.824-10.94,1.824-16.939c0-10.852-2.142-20.741-6.415-29.675c-4.283-8.934-10.242-16.528-17.896-22.784
		c-7.664-6.256-16.786-11.104-27.385-14.55s-22.209-5.171-34.841-5.171c-11.997,0-23.101,1.79-33.313,5.364
		c-10.212,3.569-19.175,8.676-26.899,15.313s-13.911,14.772-18.57,24.41c-4.66,9.632-7.436,20.454-8.329,32.446h40.78
		C212.256,186.953,217.233,175.849,224.887,168.318z M234.653,387.907h44.229v-41.544h-44.229V387.907z"></path></g></svg>